<svg width="32" height="32" viewBox="0 0 32 32" fill="none" xmlns="http://www.w3.org/2000/svg">
<path d="M9.4912 15.1344C8.4928 15.1344 7.6224 14.9296 6.88 14.52C6.1504 14.0976 5.5808 13.5088 5.1712 12.7536C4.7744 11.9984 4.576 11.1152 4.576 10.104C4.576 9.1568 4.7744 8.3184 5.1712 7.5888C5.5808 6.8592 6.144 6.2896 6.8608 5.88C7.5776 5.4704 8.4032 5.2656 9.3376 5.2656C10.3104 5.2656 11.1552 5.464 11.872 5.8608C12.5888 6.2448 13.1456 6.7952 13.5424 7.512C13.9392 8.2288 14.1376 9.0672 14.1376 10.0272C14.1376 10.168 14.1312 10.3216 14.1184 10.488C14.1056 10.6544 14.0864 10.84 14.0608 11.0448H7.936C8 11.3392 8.1088 11.5952 8.2624 11.8128C8.4288 12.0176 8.6272 12.1776 8.8576 12.2928C9.1008 12.3952 9.3696 12.4464 9.664 12.4464C9.9968 12.4464 10.2912 12.376 10.5472 12.2352C10.8032 12.0944 11.008 11.8896 11.1616 11.6208L14.0032 12.3312C13.6192 13.24 13.0368 13.9376 12.256 14.424C11.488 14.8976 10.5664 15.1344 9.4912 15.1344ZM10.7008 9.2016C10.688 8.9328 10.6176 8.696 10.4896 8.4912C10.3744 8.2864 10.2208 8.1264 10.0288 8.0112C9.8368 7.896 9.6192 7.8448 9.376 7.8576C9.1328 7.8704 8.9088 7.9344 8.704 8.0496C8.512 8.1648 8.3456 8.3248 8.2048 8.5296C8.0768 8.7216 8 8.9456 7.9744 9.2016H10.7008ZM20.8315 15.1344C19.8843 15.1472 19.0459 14.9488 18.3163 14.5392C17.5995 14.1296 17.0363 13.5536 16.6267 12.8112C16.2299 12.0688 16.0315 11.2048 16.0315 10.2192C16.0315 9.2464 16.2299 8.3888 16.6267 7.6464C17.0363 6.8912 17.5995 6.3088 18.3163 5.8992C19.0331 5.4768 19.8587 5.2656 20.7931 5.2656C21.8939 5.2656 22.8539 5.5472 23.6731 6.1104C24.4923 6.6736 25.0619 7.448 25.3819 8.4336L22.3675 9.0864C22.2523 8.7792 22.0731 8.5424 21.8299 8.376C21.5995 8.2096 21.3307 8.1264 21.0235 8.1264C20.7035 8.1264 20.4155 8.216 20.1595 8.3952C19.9163 8.5744 19.7243 8.824 19.5835 9.144C19.4427 9.464 19.3723 9.8224 19.3723 10.2192C19.3723 10.8208 19.5259 11.3136 19.8331 11.6976C20.1403 12.0816 20.5307 12.2736 21.0043 12.2736C21.3115 12.2736 21.5803 12.1904 21.8107 12.024C22.0539 11.8576 22.2459 11.6208 22.3867 11.3136L25.4011 11.9856C25.0939 12.9328 24.5243 13.6944 23.6923 14.2704C22.8731 14.8336 21.9195 15.1216 20.8315 15.1344ZM4.96 17.176H8.1088V22.4752C8.3904 22.1296 8.736 21.8416 9.1456 21.6112C9.568 21.3808 10.0544 21.2656 10.6048 21.2656C11.3472 21.2656 11.9872 21.432 12.5248 21.7648C13.0624 22.0848 13.472 22.552 13.7536 23.1664C14.048 23.7808 14.1952 24.5232 14.1952 25.3936V31H10.8544V25.7776C10.8544 25.2272 10.7392 24.8112 10.5088 24.5296C10.2784 24.2352 9.9392 24.088 9.4912 24.088C9.0304 24.088 8.6848 24.2672 8.4544 24.6256C8.224 24.984 8.1088 25.4448 8.1088 26.008V31H4.96V17.176ZM21.3222 31.1344C20.375 31.1344 19.5302 30.936 18.7878 30.5392C18.0454 30.1424 17.4566 29.5728 17.0214 28.8304C16.599 28.088 16.3878 27.2112 16.3878 26.2C16.3878 25.1888 16.6054 24.3184 17.0406 23.5888C17.4758 22.8464 18.0646 22.2768 18.807 21.88C19.5622 21.4704 20.4134 21.2656 21.3606 21.2656C22.3078 21.2656 23.159 21.4704 23.9142 21.88C24.6694 22.2768 25.2646 22.8464 25.6998 23.5888C26.135 24.3184 26.3526 25.1888 26.3526 26.2C26.3526 27.2112 26.1286 28.088 25.6806 28.8304C25.2454 29.5728 24.6438 30.1424 23.8758 30.5392C23.1206 30.936 22.2694 31.1344 21.3222 31.1344ZM21.3222 28.2736C21.6038 28.2736 21.8662 28.1968 22.1094 28.0432C22.3654 27.8896 22.5702 27.6592 22.7238 27.352C22.8774 27.0448 22.9542 26.6608 22.9542 26.2C22.9542 25.7392 22.8774 25.3552 22.7238 25.048C22.5702 24.7408 22.3718 24.5104 22.1286 24.3568C21.8854 24.2032 21.6294 24.1264 21.3606 24.1264C21.0662 24.1264 20.7974 24.2032 20.5542 24.3568C20.3238 24.5104 20.1382 24.7408 19.9974 25.048C19.8566 25.3552 19.7862 25.7392 19.7862 26.2C19.7862 26.6608 19.8502 27.0448 19.9782 27.352C20.119 27.6592 20.3046 27.8896 20.535 28.0432C20.7782 28.1968 21.0406 28.2736 21.3222 28.2736Z" fill="#27272A"/>
</svg>
